<svg xmlns="http://www.w3.org/2000/svg" width="163.839" height="163.839" fill-rule="evenodd" clip-rule="evenodd" image-rendering="optimizeQuality" shape-rendering="geometricPrecision" text-rendering="geometricPrecision" viewBox="0 0 1707 1707" id="light-bulb">
  <defs>
    <linearGradient id="a" x1="-1.551" x2="1708.21" y1="140.925" y2="1565.74" gradientUnits="userSpaceOnUse">
      <stop offset="0" stop-color="#08b6ff"></stop>
      <stop offset=".012" stop-color="#2790ff"></stop>
      <stop offset=".259" stop-color="#47c7ff"></stop>
      <stop offset=".478" stop-color="#4cc9ff"></stop>
      <stop offset=".8" stop-color="#4a9eff"></stop>
      <stop offset=".929" stop-color="#466aff"></stop>
      <stop offset="1" stop-color="#466aff"></stop>
    </linearGradient>
  </defs>
  <path fill="url(#a)" d="M999 1333l0 -384 0 -99c0,-10 -7,-17 -16,-17 -9,0 -17,7 -17,17l0 82 -221 0 0 -82c0,-10 -8,-17 -17,-17 -9,0 -17,7 -17,17l0 483 -111 0c-10,-95 -50,-184 -114,-253 -90,-98 -137,-226 -131,-359 5,-129 59,-250 152,-340 93,-91 216,-141 345,-142l3 0c277,0 501,225 501,502 0,124 -45,243 -129,336 -66,73 -106,163 -116,258 -6,-1 -11,-2 -17,-2l-95 0zm-87 374l-134 0c-48,0 -89,-29 -108,-69l350 0c-19,40 -61,69 -108,69zm118 -103l-370 0c-38,0 -68,-30 -68,-67l0 -2c1,0 2,0 3,0l499 0c2,0 3,0 4,0l0 2c0,37 -31,67 -68,67zm64 -102l-499 0c-37,0 -68,-30 -68,-68 0,-37 31,-67 68,-67l499 0c38,0 68,30 68,67 0,38 -30,68 -68,68zm-864 -381c-5,0 -11,-3 -14,-7 -5,-8 -3,-18 5,-24l118 -79c8,-6 18,-4 23,4 5,8 3,18 -4,23l-119 80c-2,2 -6,3 -9,3zm-97 -363c-9,0 -17,-8 -17,-17 0,-9 7,-16 16,-17l143 -3c9,-1 17,7 17,16 0,9 -7,17 -16,17l-143 4c0,0 0,0 0,0zm214 -289c-3,0 -5,-1 -8,-2l-123 -72c-8,-5 -11,-15 -6,-23 5,-8 15,-11 23,-6l123 72c8,5 10,15 6,23 -3,5 -9,8 -15,8zm214 -221c-6,0 -11,-3 -14,-8l-70 -125c-4,-8 -1,-18 7,-23 8,-4 18,-1 23,7l69 125c4,8 1,18 -7,22 -2,2 -5,2 -8,2zm916 870c-4,0 -7,-1 -10,-3l-118 -80c-8,-5 -10,-16 -5,-23 6,-8 16,-10 24,-5l118 80c8,5 10,16 4,23 -3,5 -8,8 -13,8zm97 -364c0,0 0,0 0,0l-143 -4c-9,0 -16,-7 -16,-17 0,-9 8,-16 17,-16l143 4c9,0 16,8 16,17 0,9 -8,16 -17,16zm-215 -288c-5,0 -11,-3 -14,-8 -5,-8 -2,-19 6,-23l123 -73c8,-4 18,-2 23,6 4,8 2,18 -6,23l-123 72c-3,2 -6,3 -9,3zm-214 -221c-2,0 -5,-1 -8,-2 -8,-4 -11,-15 -6,-23l69 -125c4,-8 15,-11 23,-6 8,4 11,14 6,23l-69 124c-3,6 -9,9 -15,9zm-298 -69c-9,0 -17,-7 -17,-17l0 -142c0,-10 8,-17 17,-17 9,0 16,7 16,17l0 142c0,10 -7,17 -16,17zm-102 1157l0 -367 221 0 0 367 -221 0z"></path>
</svg>
